<svg width="48" height="48" viewBox="0 0 48 48" fill="none" xmlns="http://www.w3.org/2000/svg">
<path d="M24.43 45.62C36.4752 45.62 46.24 35.8552 46.24 23.81C46.24 11.7647 36.4752 2 24.43 2C12.3847 2 2.62 11.7647 2.62 23.81C2.62 35.8552 12.3847 45.62 24.43 45.62Z" stroke="white" stroke-width="3.2715" stroke-linecap="round" stroke-linejoin="round"/>
<path d="M29.5189 39.077V35.0138C29.5734 34.3388 29.4799 33.66 29.2441 33.023C29.0086 32.3859 28.6363 31.8049 28.1523 31.3187C32.7178 30.8232 37.516 29.1384 37.516 21.4085C37.5156 19.4318 36.7348 17.5309 35.335 16.0993C35.9978 14.37 35.9509 12.4585 35.2041 10.7619C35.2041 10.7619 33.4883 10.2664 29.5189 12.8573C26.1863 11.9778 22.6736 11.9778 19.341 12.8573C15.3716 10.2664 13.6558 10.7619 13.6558 10.7619C12.909 12.4585 12.8622 14.37 13.525 16.0993C12.1148 17.5415 11.3331 19.4596 11.344 21.4508C11.344 29.1242 16.1422 30.809 20.7077 31.3611C20.2294 31.8424 19.8604 32.4164 19.6249 33.0459C19.3895 33.6751 19.2927 34.3455 19.341 35.0138V39.077" stroke="white" stroke-width="3.2715" stroke-linecap="round" stroke-linejoin="round"/>
<path d="M19.341 36.2456C14.979 37.6234 11.344 36.2456 9.16299 31.9983" stroke="white" stroke-width="3.2715" stroke-linecap="round" stroke-linejoin="round"/>
</svg>
