<svg width="48" height="48" viewBox="0 0 48 48" fill="none" xmlns="http://www.w3.org/2000/svg">
<path d="M23.81 45.62C35.8552 45.62 45.62 35.8552 45.62 23.81C45.62 11.7647 35.8552 2 23.81 2C11.7647 2 2 11.7647 2 23.81C2 35.8552 11.7647 45.62 23.81 45.62Z" stroke="black" stroke-width="3.2715" stroke-linecap="round" stroke-linejoin="round"/>
<path d="M28.8989 39.077V35.0138C28.9534 34.3388 28.8599 33.66 28.6241 33.023C28.3886 32.3859 28.0163 31.8049 27.5323 31.3187C32.0978 30.8232 36.896 29.1384 36.896 21.4085C36.8956 19.4318 36.1148 17.5309 34.715 16.0993C35.3778 14.37 35.3309 12.4585 34.5841 10.7619C34.5841 10.7619 32.8683 10.2664 28.8989 12.8573C25.5664 11.9778 22.0536 11.9778 18.721 12.8573C14.7516 10.2664 13.0358 10.7619 13.0358 10.7619C12.289 12.4585 12.2422 14.37 12.905 16.0993C11.4948 17.5415 10.7131 19.4596 10.724 21.4508C10.724 29.1242 15.5222 30.809 20.0877 31.3611C19.6094 31.8424 19.2404 32.4164 19.0049 33.0459C18.7695 33.6751 18.6727 34.3455 18.721 35.0138V39.077" stroke="black" stroke-width="3.2715" stroke-linecap="round" stroke-linejoin="round"/>
<path d="M18.721 36.2456C14.359 37.6234 10.724 36.2456 8.543 31.9983" stroke="black" stroke-width="3.2715" stroke-linecap="round" stroke-linejoin="round"/>
</svg>
